<svg width="96" height="16" viewBox="0 0 96 16" fill="none" xmlns="http://www.w3.org/2000/svg">
<path d="M7.99991 11.3337L4.08135 13.7271L5.14675 9.26073L1.65955 6.27355L6.23657 5.90661L7.99991 1.66699L9.76331 5.90661L14.3403 6.27355L10.8531 9.26073L11.9185 13.7271L7.99991 11.3337Z" fill="white"/>
<path d="M27.9999 11.3337L24.0814 13.7271L25.1468 9.26073L21.6595 6.27355L26.2366 5.90661L27.9999 1.66699L29.7633 5.90661L34.3403 6.27355L30.8531 9.26073L31.9185 13.7271L27.9999 11.3337Z" fill="white"/>
<path d="M47.9999 11.3337L44.0814 13.7271L45.1468 9.26073L41.6595 6.27355L46.2366 5.90661L47.9999 1.66699L49.7633 5.90661L54.3403 6.27355L50.8531 9.26073L51.9185 13.7271L47.9999 11.3337Z" fill="white"/>
<path d="M67.9999 11.3337L64.0814 13.7271L65.1468 9.26073L61.6595 6.27355L66.2366 5.90661L67.9999 1.66699L69.7633 5.90661L74.3403 6.27355L70.8531 9.26073L71.9185 13.7271L67.9999 11.3337Z" fill="white"/>
<path d="M87.9999 9.77126L89.8777 10.9183L89.3672 8.77793L91.0383 7.34646L88.8449 7.17059L87.9999 5.13894V9.77126ZM87.9999 11.3337L84.0814 13.7271L85.1468 9.26073L81.6595 6.27355L86.2366 5.90661L87.9999 1.66699L89.7633 5.90661L94.3403 6.27355L90.8531 9.26073L91.9185 13.7271L87.9999 11.3337Z" fill="white"/>
</svg>
