<svg width="187" height="186" viewBox="0 0 187 186" fill="none" xmlns="http://www.w3.org/2000/svg">
<path d="M136.847 76.3459C135.348 73.5937 131.604 67.5034 126.257 61.4733C120.968 55.3962 114.08 49.5034 108.241 45.5635C104.883 43.2584 101.377 41.1571 97.7423 39.3004C95.9306 38.3708 94.0887 37.5618 92.2565 36.6938C90.4182 35.8498 88.5305 35.1421 86.6741 34.3704C79.1498 31.4539 71.4036 29.2811 63.5887 27.67C47.9372 24.4527 32.1252 23.4341 16.5036 23.0678C11.6154 22.9469 3.33752 22.6341 3.40847 25.1571C3.4794 27.7826 8.9509 29.5044 17.3903 29.8269C27.6102 30.2206 37.8157 30.7541 47.8993 32.0206C57.9817 33.2304 67.9411 35.3214 77.3978 38.5829C84.2856 40.9919 91.0191 43.9361 97.2873 47.4505C103.533 51.0155 109.384 55.317 114.631 60.2309C119.869 65.158 124.528 70.7035 128.321 76.76C132.103 82.8189 135.014 89.413 136.621 96.2855C138.103 102.446 138.46 108.821 137.729 115.063C137.523 116.646 137.322 118.148 136.938 119.599C136.568 121.059 136.115 122.503 135.542 123.871C134.392 126.586 132.816 129.076 130.804 130.73C128.834 132.42 126.429 133.227 123.973 133.033C121.51 132.863 118.956 131.666 116.786 129.894C115.701 129.008 114.709 127.976 113.846 126.858C113.413 126.294 113.013 125.722 112.666 125.082C112.321 124.453 111.914 123.849 111.61 123.199C110.349 120.599 109.706 117.702 109.476 114.771C108.73 103.677 115.252 91.9817 125.067 87.2738C130.036 84.8379 135.728 83.9149 141.353 84.3276C144.18 84.4966 146.959 85.12 149.695 85.9014C152.424 86.7068 155.032 87.892 157.537 89.2254C161.825 91.6656 165.641 94.7 168.777 98.5685C171.904 102.394 174.491 106.76 176.27 111.488C178.09 116.196 179.251 121.22 179.691 126.325C179.961 128.872 179.952 131.447 179.887 134.023C179.73 136.597 179.512 139.15 179.029 141.694C178.631 144.105 177.862 146.689 176.971 149.289C176.056 151.883 174.971 154.481 173.937 156.953C172.281 161.078 168.702 167.622 166.372 171.43C165.395 173.082 164.331 174.798 163.143 176.269C160.383 179.626 158.684 181.768 158.255 183.116C157.823 184.452 158.621 184.97 160.681 184.762C161.593 184.662 161.728 185.782 163.466 184.383C163.532 184.323 163.678 184.21 163.744 184.15C169.313 180.056 172.691 173.84 176.057 167.776C180.226 160.304 183.46 152.208 185.191 143.706C186.942 135.188 187.039 126.298 185.325 117.708C183.615 109.139 180.041 100.791 174.437 93.8616C171.665 90.4017 168.32 87.2854 164.611 84.785C160.91 82.2713 156.853 80.3037 152.599 78.9376C150.001 78.0574 147.289 77.5328 144.566 77.1131C141.826 76.8224 139.056 76.6523 136.281 76.8703C130.754 77.2556 125.199 78.6945 120.3 81.5475C115.341 84.3909 111.227 88.4698 108.196 93.1734C105.207 97.913 103.23 103.259 102.462 108.872C102.119 111.942 101.944 115.1 102.451 118.255C102.598 119.839 103.08 121.394 103.514 122.937C103.723 123.722 104.111 124.444 104.414 125.196C104.751 125.941 105.044 126.696 105.503 127.379L105.446 127.278C106.962 130.311 109.098 133.161 111.745 135.442C114.401 137.71 117.636 139.564 121.397 140.3C124.952 140.978 128.934 140.504 132.204 138.775C135.554 137.098 138.049 134.437 139.913 131.655C141.723 128.839 143.029 125.851 143.886 122.792C144.345 121.267 144.658 119.706 144.931 118.165C145.13 116.652 145.377 115.152 145.46 113.63C145.732 110.599 145.728 107.56 145.505 104.558C145.315 101.549 144.84 98.5922 144.208 95.693C142.942 89.8946 140.851 84.4277 138.296 79.3826C137.922 78.6231 137.489 77.4899 136.847 76.3459Z" fill="#F6E04B"/>
<path d="M41.1437 17.8559C43.5318 17.3823 51.9629 15.6688 57.3864 14.7144C69.9595 12.4792 82.5182 10.2813 94.9576 7.39273C96.8972 6.95046 100.232 6.38052 99.7629 3.91169C99.2724 1.34522 96.776 0.203447 93.3609 0.871042C85.0912 2.4918 76.8457 4.52843 68.5111 5.54886C56.3189 7.03915 44.3376 9.63245 32.2936 11.8412C26.8774 12.8281 21.4805 13.9018 16.0883 14.9972C14.7273 15.2767 13.4266 15.5201 11.9728 15.8431C10.5322 16.1745 9.00368 16.571 7.43291 17.2387C6.65296 17.5714 5.85492 17.9763 5.08941 18.4765C4.27207 18.9996 3.52223 19.6216 2.86157 20.3376C1.55113 21.7672 0.399777 23.6055 0.162133 26.0718C0.0788906 26.9783 0.164408 27.927 0.410252 28.8287C0.712749 29.9342 1.27201 30.9142 1.90362 31.7075C2.53523 32.5007 3.23074 33.1204 3.91298 33.6292C5.27509 34.6358 6.60346 35.2856 7.81853 35.8354L14.5906 38.8508C19.0736 40.8377 23.5759 42.809 28.1167 44.6464C36.3739 47.9922 44.8542 50.7533 53.1813 53.9014C55.1438 54.6381 57.3075 56.0245 59.4507 56.8576C61.2203 57.5461 64.1688 58.724 65.989 59.2305C66.7786 59.4535 67.5982 59.6585 68.3107 60.0467C71.54 61.8226 72.7768 61.3429 72.7216 58.2244C72.7048 57.5337 73.3124 56.8863 72.6602 56.1546C72.6313 56.1268 72.5819 56.0582 72.553 56.0304C70.7293 53.4072 67.8736 53.108 65.3217 52.0241C52.7997 46.6999 40.2114 41.5384 27.6544 36.313L16.0751 31.5422L13.1893 30.3389C12.2454 29.9338 11.2184 29.513 10.3818 29.1296C9.53201 28.7378 8.77138 28.3375 8.22414 27.924C7.66605 27.5129 7.38519 27.1199 7.34422 26.9355C7.32132 26.8836 7.33579 26.8462 7.33699 26.8004C7.38644 26.6642 7.44189 26.6064 7.63117 26.2797C7.80598 25.9904 8.09172 25.5854 8.40276 25.1406L8.3943 25.1539C8.64265 24.9393 8.90064 24.7681 9.20685 24.609C9.54317 24.4319 9.91687 24.2691 10.3147 24.1124C11.126 23.8184 12.0603 23.5653 13.097 23.3123C14.0686 23.0736 15.1716 22.8628 16.3156 22.6314C17.4488 22.4024 18.5735 22.1867 19.7066 21.9578C21.9777 21.5215 24.2597 21.0829 26.52 20.6491C31.0514 19.7791 35.5346 18.897 39.8141 17.9691C40.1685 17.9246 40.6531 17.9535 41.1437 17.8559Z" fill="#F6E04B"/>
</svg>
